<?xml version="1.0" standalone="no"?>
<!DOCTYPE svg PUBLIC "-//W3C//DTD SVG 20010904//EN"
 "http://www.w3.org/TR/2001/REC-SVG-20010904/DTD/svg10.dtd">
<svg version="1.0" xmlns="http://www.w3.org/2000/svg"
 width="557.000000pt" height="448.000000pt" viewBox="0 0 557.000000 448.000000"
 preserveAspectRatio="xMidYMid meet">

<g transform="translate(0.000000,448.000000) scale(0.100000,-0.100000)"
fill="#000000" stroke="none">
<path d="M2900 3440 c-58 -27 -108 -49 -112 -49 -4 -1 -8 11 -10 27 l-3 27
-134 3 c-91 2 -138 -1 -147 -9 -11 -9 -18 -8 -32 5 -15 13 -42 16 -141 16 -67
0 -131 -5 -142 -10 -18 -10 -19 -25 -19 -390 l0 -380 85 0 85 0 0 -40 0 -40
-84 0 -85 0 -3 -47 c-3 -47 -4 -48 -40 -51 -70 -6 -110 -83 -92 -179 11 -57
30 -80 79 -92 62 -16 1299 -15 1361 0 61 16 79 44 79 129 0 70 -13 108 -45
128 -12 7 -71 12 -155 14 -75 1 -138 5 -140 9 -3 3 36 21 87 40 109 39 144 65
135 100 -13 49 -19 50 -87 23 -236 -93 -238 -94 -204 -142 8 -12 14 -22 12
-22 -2 -1 -83 -3 -180 -6 -147 -4 -178 -2 -185 10 -4 8 -5 77 -1 153 4 76 4
258 1 406 -4 185 -3 267 4 267 6 0 16 -13 21 -30 12 -32 12 -32 87 0 89 39
181 78 198 83 18 7 16 39 -5 80 -15 29 -74 19 -188 -33z"/>
<path d="M3090 3310 c-19 -11 -41 -19 -48 -20 -29 0 -182 -73 -182 -86 0 -7 6
-28 14 -46 8 -18 39 -91 68 -163 140 -333 140 -335 160 -335 11 0 77 26 148
57 l128 57 -25 56 c-14 30 -33 78 -43 105 -10 28 -39 100 -65 160 -25 61 -58
138 -72 173 -14 34 -31 62 -37 62 -6 -1 -27 -9 -46 -20z"/>
<path d="M2210 2185 c0 -18 93 -124 149 -171 69 -57 123 -87 231 -126 56 -20
83 -23 200 -23 132 0 137 1 228 38 102 40 128 56 214 130 51 43 128 134 128
151 0 3 -259 6 -575 6 -316 0 -575 -2 -575 -5z"/>
<path d="M610 1599 c-53 -11 -110 -79 -111 -133 -6 -238 -3 -292 13 -323 38
-69 130 -93 208 -53 63 32 70 55 70 242 0 144 -2 167 -20 195 -34 56 -98 85
-160 72z m70 -99 c18 -18 20 -33 20 -165 0 -132 -2 -147 -20 -165 -26 -26 -46
-25 -75 5 -24 23 -25 29 -25 160 0 131 1 137 25 160 29 30 49 31 75 5z"/>
<path d="M3920 1600 c-45 -13 -71 -34 -91 -72 -39 -76 -12 -179 57 -214 87
-44 124 -74 124 -99 0 -28 -32 -65 -55 -65 -25 0 -65 46 -65 75 0 23 -4 25
-40 25 -40 0 -40 0 -40 -37 0 -84 63 -147 146 -145 58 0 100 27 125 80 41 83
9 155 -91 208 -84 44 -107 74 -90 119 14 38 53 52 85 31 21 -14 25 -24 25 -61
l0 -45 45 0 45 0 0 43 c-1 98 -97 182 -180 157z"/>
<path d="M168 1378 c-2 -122 -1 -240 1 -260 3 -38 4 -38 47 -38 l44 0 0 95 0
95 38 0 c55 0 121 38 145 83 26 50 26 140 0 175 -42 57 -67 67 -173 70 l-99 4
-3 -224z m190 120 c18 -18 15 -98 -5 -120 -10 -11 -30 -18 -55 -18 l-38 0 0
75 0 75 43 0 c24 0 48 -5 55 -12z"/>
<path d="M858 1558 c-3 -23 -6 -141 -7 -260 l-2 -218 45 0 46 0 0 110 0 110
40 0 c66 0 80 -23 80 -130 l0 -90 45 0 45 0 0 93 c0 73 -4 100 -20 130 l-20
37 22 31 c31 41 32 116 2 155 -43 59 -68 69 -174 72 l-98 4 -4 -44z m194 -65
c48 -43 4 -107 -69 -101 l-38 3 -3 58 -3 57 47 0 c30 0 54 -6 66 -17z"/>
<path d="M1180 1555 l0 -45 50 0 50 0 0 -216 0 -215 42 3 42 3 1 210 0 210 50
5 50 5 0 40 0 40 -142 3 -143 3 0 -46z"/>
<path d="M1568 1585 c-14 -8 -37 -32 -50 -52 -21 -34 -23 -52 -26 -184 -3
-132 -2 -151 18 -196 16 -37 30 -54 56 -66 73 -35 166 -11 197 50 24 47 29
100 21 240 -6 123 -9 136 -33 167 -14 19 -36 39 -49 45 -32 15 -102 13 -134
-4z m119 -94 c8 -11 12 -61 13 -155 0 -130 -2 -141 -22 -163 -27 -29 -51 -29
-78 -1 -18 20 -20 34 -20 162 1 142 6 165 40 178 21 8 53 -2 67 -21z"/>
<path d="M1856 1539 c-12 -117 -11 -119 33 -119 l38 0 6 68 c11 115 12 112
-32 112 l-38 0 -7 -61z"/>
<path d="M2048 1571 c-46 -40 -62 -80 -56 -136 7 -57 44 -107 102 -135 93 -45
115 -79 80 -128 -29 -42 -89 -16 -100 43 -6 33 -9 35 -45 35 -38 0 -39 -1 -39
-36 0 -74 62 -143 132 -146 104 -4 173 76 154 178 -9 44 -35 69 -127 124 l-70
42 3 41 c2 33 9 44 29 56 24 13 29 13 53 -2 22 -15 26 -25 26 -62 l0 -45 45 0
45 0 0 40 c0 51 -20 98 -54 129 -20 19 -40 26 -85 29 -53 4 -61 2 -93 -27z"/>
<path d="M2458 1594 c-5 -4 -8 -121 -8 -261 l0 -253 94 0 c80 0 98 3 126 23
72 47 95 148 50 209 l-21 29 22 30 c33 47 36 106 7 148 -43 63 -69 76 -171 79
-51 2 -95 0 -99 -4z m184 -101 c25 -23 23 -68 -4 -87 -12 -9 -39 -16 -60 -16
l-38 0 0 60 0 60 42 0 c24 0 49 -7 60 -17z m1 -225 c29 -39 15 -77 -35 -96
-58 -22 -68 -13 -68 63 l0 66 42 -3 c31 -2 46 -10 61 -30z"/>
<path d="M2850 1564 c-54 -49 -63 -88 -58 -253 4 -153 14 -185 71 -220 42 -26
114 -28 156 -4 60 35 71 72 71 248 0 142 -2 161 -21 191 -32 52 -69 74 -128
74 -44 0 -56 -5 -91 -36z m128 -60 c21 -15 22 -21 22 -169 0 -148 -1 -154 -22
-169 -29 -20 -52 -20 -72 0 -13 13 -16 42 -16 167 0 154 3 169 30 180 25 9 34
8 58 -9z"/>
<path d="M3200 1564 c-55 -50 -63 -84 -58 -254 3 -133 5 -148 26 -178 30 -42
70 -62 124 -62 53 0 101 28 124 71 22 44 21 346 -2 391 -22 42 -70 68 -126 68
-41 0 -54 -5 -88 -36z m125 -69 c24 -23 25 -29 25 -158 0 -121 -2 -137 -21
-161 -25 -31 -48 -33 -77 -6 -21 20 -22 30 -22 163 0 145 5 168 40 180 26 9
30 8 55 -18z"/>
<path d="M3502 1338 l3 -263 40 0 40 0 3 94 c3 88 12 121 33 121 5 0 9 -8 9
-17 1 -10 22 -58 48 -108 l47 -90 43 -3 c23 -2 42 1 42 7 0 9 -65 150 -118
256 l-25 50 32 47 c17 25 31 49 31 53 0 3 11 21 24 38 13 18 29 42 35 55 11
21 10 22 -32 22 -43 0 -46 -2 -83 -57 -21 -32 -45 -69 -52 -83 -27 -52 -32
-45 -32 48 l0 92 -45 0 -45 0 2 -262z"/>
<path d="M4160 1568 c0 -18 -2 -132 -5 -253 -3 -121 -1 -226 4 -233 5 -8 23
-12 47 -10 l39 3 3 113 3 112 54 0 54 0 3 -112 3 -113 43 -3 42 -3 0 265 0
266 -45 0 -45 0 0 -105 0 -105 -55 0 -55 0 0 105 0 105 -45 0 c-44 0 -45 -1
-45 -32z"/>
<path d="M4520 1340 l0 -260 125 0 125 0 0 40 0 40 -79 0 c-90 0 -90 0 -87 81
l1 54 80 5 80 5 3 42 3 42 -83 3 -83 3 1 55 0 55 80 5 79 5 0 40 0 40 -122 3
-123 3 0 -261z"/>
<path d="M4840 1340 l0 -260 125 0 125 0 0 40 0 40 -67 1 c-38 1 -75 2 -83 3
-13 1 -15 34 -18 219 l-2 217 -40 0 -40 0 0 -260z"/>
<path d="M5140 1334 l0 -265 43 3 42 3 3 112 3 112 77 3 77 3 3 43 3 42 -80 0
-81 0 0 60 0 59 78 3 77 3 3 43 3 42 -125 0 -126 0 0 -266z"/>
</g>
</svg>
