<!DOCTYPE svg PUBLIC "-//W3C//DTD SVG 1.1//EN" "http://www.w3.org/Graphics/SVG/1.1/DTD/svg11.dtd">
<!-- Uploaded to: SVG Repo, www.svgrepo.com, Transformed by: SVG Repo Mixer Tools -->
<svg fill="#6b7280" version="1.1" id="Layer_1" xmlns="http://www.w3.org/2000/svg" xmlns:xlink="http://www.w3.org/1999/xlink" viewBox="0 0 512 512" xml:space="preserve" width="800px" height="800px">
<g id="SVGRepo_bgCarrier" stroke-width="0"/>
<g id="SVGRepo_tracerCarrier" stroke-linecap="round" stroke-linejoin="round"/>
<g id="SVGRepo_iconCarrier"> <g> <g> <polygon points="0,17.08 0,495.04 56,439.088 56,73.028 "/> </g> </g> <g> <g> <polygon points="439.084,456 73.02,456 16.956,512 495.144,512 "/> </g> </g> <g> <g> <polygon points="456,73.028 456,439.088 512,495.04 512,17.08 "/> </g> </g> <g> <g> <polygon points="16.956,0 73.02,56 439.084,56 495.144,0 "/> </g> </g> <g> <g> <path d="M347.04,253.74l-88.144-107.536c-0.756-0.924-1.888-1.476-3.092-1.476c-1.192,0-2.332,0.524-3.092,1.448L164.58,253.672 c-0.976,1.196-1.18,2.784-0.52,4.18c0.66,1.396,2.064,2.148,3.612,2.148H200v92.248c0,2.208,1.904,3.752,4.108,3.752h103.9 c2.212,0,3.992-1.544,3.992-3.752V260h31.944c1.548,0,2.956-0.756,3.616-2.152C348.22,256.452,348.016,254.936,347.04,253.74z"/> </g> </g> <g> <g> <path d="M80,80v64h143.704l10.456-12.892c5.34-6.508,13.232-10.3,21.644-10.3c8.416,0,16.304,3.824,21.656,10.348L287.916,144H432 V80H80z"/> </g> </g> <g> <g> <path d="M330.864,368c-5.076,8-13.416,12-22.856,12h-103.9c-9.432,0-17.772-4-22.852-12H80v64h352v-64H330.864z"/> </g> </g> <g> <g> <polygon points="276.552,168 235.064,168 172.516,244 339.1,244 "/> </g> </g> <g> <g> <path d="M80,168v76h62.564c0.936,0,2.052-3.668,3.452-5.376L204.032,168H80z"/> </g> </g> <g> <g> <path d="M307.584,168l58.008,70.62c1.404,1.712,2.52,5.38,3.464,5.38H432v-76H307.584z"/> </g> </g> <g> <g> <rect x="200" y="268" width="112" height="76"/> </g> </g> <g> <g> <path d="M167.672,284c-10.764,0-20.696-6.18-25.304-15.912c-0.032-0.06-0.048-0.088-0.08-0.088H80v76h96v-60H167.672z"/> </g> </g> <g> <g> <path d="M369.328,268c-0.032,0-0.048,0.028-0.08,0.088C364.64,277.82,354.712,284,343.944,284H336v60h96v-76H369.328z"/> </g> </g> </g>
</svg>